<svg xmlns="http://www.w3.org/2000/svg" xmlns:xlink="http://www.w3.org/1999/xlink" id="Layer_1" x="0" y="0" version="1.1" viewBox="0 0 354.8 84.6" xml:space="preserve" style="enable-background:new 0 0 354.8 84.6"><style type="text/css">.st0{enable-background:new}.st1{fill:#231f20}</style><g id="Layer_2_1_"><g id="Layer_1-2"><g class="st0"><path d="M6.8,4.4V25h-5V4.4H6.8z" class="st1"/><path d="M15.5,8.4v4.2h6.7v3.9h-6.7v4.5H23v4H10.4V4.4H23v4H15.5z" class="st1"/><path d="M31.3,8.4v4.2H38v3.9h-6.7v4.5h7.6v4H26.3V4.4h12.6v4H31.3z" class="st1"/><path d="M47.1,8.4v4.2h6.7v3.9h-6.7v4.5h7.6v4H42.1V4.4h12.6v4H47.1z" class="st1"/><path d="M67.6,24.4c-1.2-0.5-2.1-1.2-2.9-2.2c-0.7-1-1.1-2.1-1.1-3.5h5.3c0.1,0.8,0.3,1.3,0.8,1.7 c0.4,0.4,1,0.6,1.8,0.6c0.7,0,1.3-0.2,1.8-0.5c0.4-0.3,0.6-0.8,0.6-1.4c0-0.5-0.2-0.9-0.5-1.3s-0.8-0.6-1.3-0.8 c-0.5-0.2-1.2-0.5-2.1-0.7c-1.3-0.4-2.4-0.8-3.2-1.2c-0.8-0.4-1.6-1-2.2-1.8c-0.6-0.8-0.9-1.8-0.9-3.1c0-1.9,0.7-3.4,2.1-4.5 c1.4-1.1,3.2-1.6,5.4-1.6c2.3,0,4.1,0.5,5.5,1.6c1.4,1.1,2.1,2.6,2.2,4.5h-5.4c0-0.7-0.3-1.2-0.7-1.6c-0.4-0.4-1-0.6-1.7-0.6 c-0.6,0-1.1,0.2-1.5,0.5c-0.4,0.3-0.6,0.8-0.6,1.4c0,0.7,0.3,1.2,0.9,1.6c0.6,0.4,1.6,0.8,2.9,1.2c1.3,0.4,2.4,0.9,3.2,1.3 c0.8,0.4,1.5,1,2.2,1.8c0.6,0.8,0.9,1.8,0.9,3c0,1.2-0.3,2.2-0.9,3.2s-1.5,1.7-2.6,2.3c-1.1,0.6-2.5,0.8-4,0.8 C70.1,25.2,68.7,24.9,67.6,24.4z" class="st1"/><path d="M96.9,4.4v4h-5.4V25h-5V8.4H81v-4H96.9z" class="st1"/><path d="M104.4,4.4v12.3c0,1.2,0.3,2.2,0.9,2.8c0.6,0.7,1.5,1,2.7,1c1.2,0,2.1-0.3,2.7-1c0.6-0.7,0.9-1.6,0.9-2.8 V4.4h5v12.3c0,1.8-0.4,3.4-1.2,4.7c-0.8,1.3-1.8,2.2-3.1,2.9c-1.3,0.6-2.8,1-4.4,1c-1.6,0-3.1-0.3-4.3-1c-1.3-0.6-2.3-1.6-3-2.9 c-0.7-1.3-1.1-2.8-1.1-4.7V4.4H104.4z" class="st1"/><path d="M133.5,5.7c1.6,0.9,2.9,2.1,3.8,3.6c0.9,1.6,1.3,3.3,1.3,5.4c0,2-0.4,3.8-1.3,5.4c-0.9,1.6-2.1,2.8-3.8,3.6 c-1.6,0.9-3.5,1.3-5.7,1.3h-7.7V4.4h7.7C130,4.4,131.8,4.8,133.5,5.7z M131.9,19.1c1.1-1,1.6-2.5,1.6-4.4s-0.5-3.4-1.6-4.4 s-2.5-1.6-4.4-1.6h-2.4v11.9h2.4C129.4,20.6,130.8,20.1,131.9,19.1z" class="st1"/><path d="M146.4,8.4v4.2h6.7v3.9h-6.7v4.5h7.6v4h-12.6V4.4H154v4H146.4z" class="st1"/><path d="M175.6,25h-5l-8.4-12.7V25h-5V4.4h5l8.4,12.7V4.4h5V25z" class="st1"/><path d="M194,4.4v4h-5.4V25h-5V8.4h-5.4v-4H194z" class="st1"/><path d="M218,16.2c0.7,0.9,1.1,2,1.1,3.2c0,1.7-0.6,3.1-1.8,4.1c-1.2,1-2.9,1.5-5,1.5h-9.6V4.4h9.2 c2.1,0,3.7,0.5,4.9,1.4s1.8,2.3,1.8,3.9c0,1.2-0.3,2.2-1,3c-0.6,0.8-1.5,1.4-2.5,1.7C216.3,14.7,217.3,15.3,218,16.2z M207.7,12.7h3.3c0.8,0,1.4-0.2,1.9-0.5c0.4-0.4,0.7-0.9,0.7-1.6c0-0.7-0.2-1.2-0.7-1.6c-0.4-0.4-1.1-0.6-1.9-0.6h-3.3V12.7z M213.4,20.3c0.5-0.4,0.7-0.9,0.7-1.7s-0.2-1.3-0.7-1.7c-0.5-0.4-1.1-0.6-2-0.6h-3.6v4.5h3.7C212.3,20.9,212.9,20.7,213.4,20.3z" class="st1"/><path d="M232.5,25l-4.3-7.8H227V25h-5V4.4h8.4c1.6,0,3,0.3,4.1,0.8c1.1,0.6,2,1.3,2.6,2.3c0.6,1,0.8,2.1,0.8,3.3 c0,1.4-0.4,2.6-1.2,3.7c-0.8,1.1-1.9,1.8-3.4,2.3l4.7,8.1H232.5z M227,13.7h3.1c0.9,0,1.6-0.2,2.1-0.7c0.5-0.4,0.7-1.1,0.7-1.9 c0-0.8-0.2-1.4-0.7-1.8s-1.1-0.7-2.1-0.7H227V13.7z" class="st1"/><path d="M253.9,21.3h-7.7L245,25h-5.2l7.4-20.5h5.8l7.4,20.5h-5.3L253.9,21.3z M252.6,17.5L250,9.9l-2.5,7.5H252.6z" class="st1"/><path d="M281,25h-5l-8.4-12.7V25h-5V4.4h5l8.4,12.7V4.4h5V25z" class="st1"/><path d="M285.1,9.2c0.9-1.6,2.1-2.8,3.7-3.7c1.6-0.9,3.4-1.3,5.3-1.3c2.4,0,4.5,0.6,6.3,1.9c1.7,1.3,2.9,3,3.5,5.3 h-5.5c-0.4-0.9-1-1.5-1.7-2c-0.8-0.4-1.6-0.7-2.6-0.7c-1.5,0-2.8,0.5-3.7,1.6s-1.4,2.5-1.4,4.3s0.5,3.2,1.4,4.3s2.2,1.6,3.7,1.6 c1,0,1.8-0.2,2.6-0.7c0.8-0.4,1.3-1.1,1.7-2h5.5c-0.6,2.2-1.7,4-3.5,5.3c-1.7,1.3-3.8,1.9-6.3,1.9c-2,0-3.8-0.4-5.3-1.3 c-1.6-0.9-2.8-2.1-3.7-3.7c-0.9-1.6-1.3-3.4-1.3-5.4S284.3,10.8,285.1,9.2z" class="st1"/><path d="M324.8,4.4V25h-5v-8.5H312V25h-5V4.4h5v8h7.8v-8H324.8z" class="st1"/></g><g class="st0"><path d="M12,36c1.1,0.8,1.9,2,2.2,3.4h-2.4c-0.3-0.8-0.8-1.4-1.5-1.8c-0.7-0.5-1.5-0.7-2.5-0.7 c-0.9,0-1.7,0.2-2.4,0.6c-0.7,0.4-1.2,1-1.6,1.8c-0.4,0.8-0.6,1.7-0.6,2.7c0,1.1,0.2,2,0.6,2.8c0.4,0.8,1,1.4,1.7,1.8 C6.3,46.8,7.1,47,8.1,47c1.2,0,2.2-0.4,3-1.1c0.8-0.7,1.3-1.7,1.5-3H7.4v-1.7h7.1v2.2c-0.2,1-0.5,2-1.1,2.8 c-0.6,0.8-1.3,1.5-2.3,2s-2,0.8-3.3,0.8c-1.4,0-2.6-0.3-3.6-0.9c-1.1-0.6-1.9-1.5-2.4-2.5s-0.9-2.3-0.9-3.7 c0-1.4,0.3-2.6,0.9-3.7s1.4-1.9,2.4-2.5c1-0.6,2.3-0.9,3.6-0.9C9.5,34.7,10.9,35.1,12,36z" class="st1"/><path d="M26.9,35.6c1.1,0.6,1.9,1.5,2.5,2.6c0.6,1.1,0.9,2.3,0.9,3.7s-0.3,2.6-0.9,3.7c-0.6,1.1-1.4,2-2.5,2.6 c-1.1,0.6-2.2,0.9-3.6,0.9c-1.3,0-2.5-0.3-3.6-0.9c-1.1-0.6-1.9-1.5-2.5-2.6c-0.6-1.1-0.9-2.3-0.9-3.7s0.3-2.6,0.9-3.7 c0.6-1.1,1.5-2,2.5-2.6s2.3-0.9,3.6-0.9C24.7,34.7,25.9,35,26.9,35.6z M21,37.4c-0.7,0.4-1.3,1-1.6,1.8c-0.4,0.8-0.6,1.7-0.6,2.7 c0,1,0.2,1.9,0.6,2.7c0.4,0.8,0.9,1.4,1.6,1.8c0.7,0.4,1.5,0.6,2.4,0.6c0.9,0,1.7-0.2,2.4-0.6c0.7-0.4,1.2-1,1.6-1.8 c0.4-0.8,0.6-1.7,0.6-2.7c0-1-0.2-1.9-0.6-2.7c-0.4-0.8-0.9-1.4-1.6-1.8c-0.7-0.4-1.5-0.6-2.4-0.6C22.5,36.8,21.7,37,21,37.4z" class="st1"/><path d="M34.1,34.8l4.1,11.7l4.1-11.7h2.5L39.6,49h-2.9l-5.1-14.1H34.1z" class="st1"/><path d="M48.7,36.7V41h5.2v1.8h-5.2v4.4h5.8V49h-8.1V34.8h8.1v1.8H48.7z" class="st1"/><path d="M64.1,49l-3.5-5.6H59V49h-2.3V34.8h5c1.6,0,2.8,0.4,3.7,1.2c0.8,0.8,1.3,1.8,1.3,3.1c0,1.1-0.3,2-0.9,2.7 C65,42.6,64.1,43,63,43.2l3.7,5.7H64.1z M59,41.7h2.5c1.8,0,2.8-0.8,2.8-2.4c0-0.8-0.2-1.4-0.7-1.8s-1.1-0.7-2.1-0.7H59V41.7z" class="st1"/><path d="M80.1,49h-2.3l-6.9-10.4V49h-2.3V34.9h2.3l6.9,10.5V34.9h2.3V49z" class="st1"/><path d="M97.5,35V49h-2.3V38.5l-4,10.4h-2l-4-10.4V49h-2.3V35h2.8l4.6,11.1L94.7,35H97.5z" class="st1"/><path d="M102.5,36.7V41h5.2v1.8h-5.2v4.4h5.8V49h-8.1V34.8h8.1v1.8H102.5z" class="st1"/><path d="M121.9,49h-2.3l-6.9-10.4V49h-2.3V34.9h2.3l6.9,10.5V34.9h2.3V49z" class="st1"/><path d="M133.8,34.8v1.8h-3.9V49h-2.3V36.7h-3.9v-1.8H133.8z" class="st1"/><path d="M142.4,36.7V41h5.2v1.8h-5.2v4.4h5.8V49h-8.1V34.8h8.1v1.8H142.4z" class="st1"/><path d="M161.9,49h-2.3l-6.9-10.4V49h-2.3V34.9h2.3l6.9,10.5V34.9h2.3V49z" class="st1"/><path d="M175.3,36c1.1,0.8,1.9,2,2.2,3.4h-2.4c-0.3-0.8-0.8-1.4-1.5-1.8c-0.7-0.5-1.5-0.7-2.5-0.7 c-0.9,0-1.7,0.2-2.4,0.6c-0.7,0.4-1.2,1-1.6,1.8c-0.4,0.8-0.6,1.7-0.6,2.7c0,1.1,0.2,2,0.6,2.8c0.4,0.8,1,1.4,1.7,1.8 c0.7,0.4,1.6,0.6,2.5,0.6c1.2,0,2.2-0.4,3-1.1c0.8-0.7,1.3-1.7,1.5-3h-5.2v-1.7h7.1v2.2c-0.2,1-0.5,2-1.1,2.8 c-0.6,0.8-1.3,1.5-2.3,2s-2,0.8-3.3,0.8c-1.4,0-2.6-0.3-3.6-0.9c-1.1-0.6-1.9-1.5-2.4-2.5s-0.9-2.3-0.9-3.7 c0-1.4,0.3-2.6,0.9-3.7s1.4-1.9,2.4-2.5c1-0.6,2.3-0.9,3.6-0.9C172.8,34.7,174.2,35.1,175.3,36z" class="st1"/><path d="M182.4,34.8V49h-2.3V34.8H182.4z" class="st1"/><path d="M196.5,49h-2.3l-6.9-10.4V49h-2.3V34.9h2.3l6.9,10.5V34.9h2.3V49z" class="st1"/><path d="M201.6,36.7V41h5.2v1.8h-5.2v4.4h5.8V49h-8.1V34.8h8.1v1.8H201.6z" class="st1"/><path d="M211.9,36.7V41h5.2v1.8h-5.2v4.4h5.8V49h-8.1V34.8h8.1v1.8H211.9z" class="st1"/><path d="M227.3,49l-3.5-5.6h-1.6V49h-2.3V34.8h5c1.6,0,2.8,0.4,3.7,1.2c0.8,0.8,1.3,1.8,1.3,3.1c0,1.1-0.3,2-0.9,2.7 c-0.6,0.7-1.5,1.2-2.7,1.4l3.7,5.7H227.3z M222.2,41.7h2.5c1.8,0,2.8-0.8,2.8-2.4c0-0.8-0.2-1.4-0.7-1.8 c-0.4-0.4-1.1-0.7-2.1-0.7h-2.5V41.7z" class="st1"/><path d="M234.1,34.8V49h-2.3V34.8H234.1z" class="st1"/><path d="M248.3,49H246l-6.9-10.4V49h-2.3V34.9h2.3l6.9,10.5V34.9h2.3V49z" class="st1"/><path d="M261.7,36c1.1,0.8,1.9,2,2.2,3.4h-2.4c-0.3-0.8-0.8-1.4-1.5-1.8c-0.7-0.5-1.5-0.7-2.5-0.7 c-0.9,0-1.7,0.2-2.4,0.6s-1.2,1-1.6,1.8c-0.4,0.8-0.6,1.7-0.6,2.7c0,1.1,0.2,2,0.6,2.8c0.4,0.8,1,1.4,1.7,1.8 c0.7,0.4,1.6,0.6,2.5,0.6c1.2,0,2.2-0.4,3-1.1c0.8-0.7,1.3-1.7,1.5-3h-5.2v-1.7h7.1v2.2c-0.2,1-0.5,2-1.1,2.8 c-0.6,0.8-1.3,1.5-2.3,2s-2,0.8-3.3,0.8c-1.4,0-2.6-0.3-3.6-0.9s-1.9-1.5-2.4-2.5c-0.6-1.1-0.9-2.3-0.9-3.7 c0-1.4,0.3-2.6,0.9-3.7c0.6-1.1,1.4-1.9,2.4-2.5c1-0.6,2.3-0.9,3.6-0.9C259.2,34.7,260.6,35.1,261.7,36z" class="st1"/><path d="M281.8,36c1.1,0.9,1.9,2.1,2.3,3.6h-2.4c-0.3-0.9-0.9-1.5-1.6-2s-1.6-0.8-2.7-0.8c-0.8,0-1.6,0.2-2.3,0.6 c-0.7,0.4-1.2,1-1.6,1.8c-0.4,0.8-0.6,1.7-0.6,2.7c0,1,0.2,1.9,0.6,2.7c0.4,0.8,0.9,1.4,1.6,1.8s1.4,0.6,2.3,0.6 c1.1,0,1.9-0.3,2.7-0.8s1.3-1.2,1.6-2h2.4c-0.4,1.5-1.2,2.7-2.3,3.6c-1.1,0.9-2.6,1.3-4.3,1.3c-1.3,0-2.5-0.3-3.5-0.9 c-1-0.6-1.8-1.5-2.4-2.5c-0.6-1.1-0.8-2.3-0.8-3.7c0-1.4,0.3-2.6,0.8-3.7c0.6-1.1,1.4-1.9,2.4-2.5c1-0.6,2.2-0.9,3.5-0.9 C279.3,34.7,280.7,35.1,281.8,36z" class="st1"/><path d="M296.5,35.6c1.1,0.6,1.9,1.5,2.5,2.6c0.6,1.1,0.9,2.3,0.9,3.7s-0.3,2.6-0.9,3.7c-0.6,1.1-1.4,2-2.5,2.6 c-1.1,0.6-2.2,0.9-3.5,0.9c-1.3,0-2.5-0.3-3.6-0.9c-1.1-0.6-1.9-1.5-2.5-2.6c-0.6-1.1-0.9-2.3-0.9-3.7s0.3-2.6,0.9-3.7 c0.6-1.1,1.4-2,2.5-2.6s2.3-0.9,3.6-0.9C294.3,34.7,295.5,35,296.5,35.6z M290.6,37.4c-0.7,0.4-1.3,1-1.7,1.8 c-0.4,0.8-0.6,1.7-0.6,2.7c0,1,0.2,1.9,0.6,2.7c0.4,0.8,0.9,1.4,1.7,1.8c0.7,0.4,1.5,0.6,2.4,0.6c0.9,0,1.7-0.2,2.4-0.6 s1.2-1,1.6-1.8c0.4-0.8,0.6-1.7,0.6-2.7c0-1-0.2-1.9-0.6-2.7c-0.4-0.8-0.9-1.4-1.6-1.8s-1.5-0.6-2.4-0.6 C292.1,36.8,291.3,37,290.6,37.4z" class="st1"/><path d="M304.5,47.2h4.9V49h-7.2V34.8h2.3V47.2z" class="st1"/><path d="M313.5,47.2h4.9V49h-7.2V34.8h2.3V47.2z" class="st1"/><path d="M322.4,36.7V41h5.2v1.8h-5.2v4.4h5.8V49h-8.1V34.8h8.1v1.8H322.4z" class="st1"/><path d="M341.1,36c1.1,0.8,1.9,2,2.2,3.4h-2.4c-0.3-0.8-0.8-1.4-1.5-1.8c-0.7-0.5-1.5-0.7-2.5-0.7 c-0.9,0-1.7,0.2-2.4,0.6c-0.7,0.4-1.2,1-1.6,1.8s-0.6,1.7-0.6,2.7c0,1.1,0.2,2,0.6,2.8c0.4,0.8,1,1.4,1.7,1.8 c0.7,0.4,1.6,0.6,2.5,0.6c1.2,0,2.2-0.4,3-1.1c0.8-0.7,1.3-1.7,1.5-3h-5.2v-1.7h7.1v2.2c-0.2,1-0.5,2-1.1,2.8 c-0.6,0.8-1.3,1.5-2.3,2s-2,0.8-3.3,0.8c-1.4,0-2.6-0.3-3.6-0.9c-1.1-0.6-1.9-1.5-2.4-2.5s-0.9-2.3-0.9-3.7 c0-1.4,0.3-2.6,0.9-3.7s1.4-1.9,2.4-2.5c1-0.6,2.3-0.9,3.6-0.9C338.6,34.7,340,35.1,341.1,36z" class="st1"/><path d="M348.2,36.7V41h5.2v1.8h-5.2v4.4h5.8V49h-8.1V34.8h8.1v1.8H348.2z" class="st1"/></g><g class="st0"><path d="M3.7,58.8V73H1.4V58.8H3.7z" class="st1"/><path d="M17.7,69.6c-0.6,1.1-1.4,1.9-2.5,2.5s-2.4,0.9-4,0.9H6.4V58.8h4.7c1.5,0,2.9,0.3,4,0.9s2,1.4,2.5,2.5 s0.9,2.3,0.9,3.7S18.3,68.5,17.7,69.6z M14.9,69.6c0.9-0.9,1.4-2.1,1.4-3.7s-0.5-2.8-1.4-3.7s-2.2-1.3-3.9-1.3H8.7v10H11 C12.7,70.9,14,70.5,14.9,69.6z" class="st1"/><path d="M23,58.8v8.4c0,1.3,0.3,2.2,0.8,2.8c0.6,0.6,1.3,0.9,2.3,0.9c1,0,1.8-0.3,2.3-0.9c0.6-0.6,0.8-1.5,0.8-2.8 v-8.4h2.3v8.4c0,1.9-0.5,3.4-1.5,4.4s-2.3,1.5-4,1.5c-1.6,0-2.9-0.5-3.9-1.5s-1.5-2.5-1.5-4.4v-8.4H23z" class="st1"/><path d="M38.7,65.8l6.2,7.1h-2.8l-5.6-6.5V73h-2.3V58.8h2.3v6.5l5.6-6.5h2.8L38.7,65.8z" class="st1"/><path d="M51,65.8l6.2,7.1h-2.8l-5.6-6.5V73h-2.3V58.8h2.3v6.5l5.6-6.5h2.8L51,65.8z" class="st1"/><path d="M61.2,58.8V73h-2.3V58.8H61.2z" class="st1"/></g></g></g></svg>