<svg xmlns="http://www.w3.org/2000/svg" viewBox="0 0 353.04 68.98"><defs><style>.cls-1{isolation:isolate;}.cls-2{fill:#fff;}</style></defs><g id="Layer_2" data-name="Layer 2"><g id="Layer_1-2" data-name="Layer 1"><g id="Layer_2-2" data-name="Layer 2"><g id="Layer_1-2-2" data-name="Layer 1-2"><g class="cls-1"><g class="cls-1"><path class="cls-2" d="M5.9.29V20.84H.9V.29Z"/><path class="cls-2" d="M14.53,4.3V8.46h6.71v3.86H14.53v4.51h7.59v4H9.53V.29H22.12v4Z"/><path class="cls-2" d="M30.37,4.3V8.46h6.7v3.86h-6.7v4.51H38v4H25.36V.29H38v4Z"/><path class="cls-2" d="M46.2,4.3V8.46h6.71v3.86H46.2v4.51h7.58v4H41.2V.29H53.78v4Z"/><path class="cls-2" d="M66.63,20.31a6.54,6.54,0,0,1-2.85-2.16,6,6,0,0,1-1.13-3.46H68A2.39,2.39,0,0,0,70.53,17a2.74,2.74,0,0,0,1.75-.52,1.71,1.71,0,0,0,.65-1.42,1.68,1.68,0,0,0-.52-1.26A4.3,4.3,0,0,0,71.16,13c-.5-.21-1.21-.45-2.13-.73a23.5,23.5,0,0,1-3.25-1.23,6,6,0,0,1-2.16-1.81,5,5,0,0,1-.91-3.13,5.4,5.4,0,0,1,2.08-4.5A8.54,8.54,0,0,1,70.2,0a8.67,8.67,0,0,1,5.48,1.62A5.85,5.85,0,0,1,77.9,6.15H72.49a2.15,2.15,0,0,0-.73-1.57A2.6,2.6,0,0,0,70,4a2.14,2.14,0,0,0-1.46.48A1.72,1.72,0,0,0,68,5.88,1.71,1.71,0,0,0,69,7.43a14.78,14.78,0,0,0,2.92,1.2,27.17,27.17,0,0,1,3.24,1.29,6.21,6.21,0,0,1,2.15,1.79,4.79,4.79,0,0,1,.91,3,5.87,5.87,0,0,1-.9,3.19,6.25,6.25,0,0,1-2.59,2.29,9,9,0,0,1-4,.84A10.54,10.54,0,0,1,66.63,20.31Z"/><path class="cls-2" d="M96,.29v4H90.58V20.84h-5V4.3H80.13v-4Z"/><path class="cls-2" d="M103.45.29v12.3a4.06,4.06,0,0,0,.91,2.83,3.41,3.41,0,0,0,2.67,1,3.5,3.5,0,0,0,2.69-1,4,4,0,0,0,.94-2.83V.29h5V12.56a8.72,8.72,0,0,1-1.17,4.65,7.52,7.52,0,0,1-3.15,2.87,9.9,9.9,0,0,1-4.4,1,9.59,9.59,0,0,1-4.35-.95,7,7,0,0,1-3-2.87,9.13,9.13,0,0,1-1.11-4.66V.29Z"/><path class="cls-2" d="M132.55,1.58a9.17,9.17,0,0,1,3.76,3.62,10.59,10.59,0,0,1,1.33,5.37,10.59,10.59,0,0,1-1.33,5.35,9.19,9.19,0,0,1-3.78,3.63,11.93,11.93,0,0,1-5.66,1.29h-7.7V.29h7.7A11.93,11.93,0,0,1,132.55,1.58ZM131,15a5.9,5.9,0,0,0,1.58-4.39A6,6,0,0,0,131,6.15a6,6,0,0,0-4.42-1.58h-2.37V16.51h2.37A6.07,6.07,0,0,0,131,15Z"/><path class="cls-2" d="M145.46,4.3V8.46h6.7v3.86h-6.7v4.51H153v4H140.45V.29H153v4Z"/><path class="cls-2" d="M174.67,20.84h-5L161.29,8.17V20.84h-5V.29h5L169.66,13V.29h5Z"/><path class="cls-2" d="M193.08.29v4h-5.45V20.84h-5V4.3h-5.45v-4Z"/><path class="cls-2" d="M217.11,12.07a5.06,5.06,0,0,1,1.08,3.18,5,5,0,0,1-1.8,4.08,7.56,7.56,0,0,1-5,1.51H201.8V.29h9.25A7.55,7.55,0,0,1,216,1.73a4.73,4.73,0,0,1,1.77,3.89,4.65,4.65,0,0,1-.95,3,4.9,4.9,0,0,1-2.53,1.67A4.84,4.84,0,0,1,217.11,12.07ZM206.8,8.61h3.28A2.92,2.92,0,0,0,212,8.06a1.93,1.93,0,0,0,.66-1.59A2,2,0,0,0,212,4.86a2.86,2.86,0,0,0-1.89-.56H206.8Zm5.64,7.62a2,2,0,0,0,.69-1.65,2.11,2.11,0,0,0-.72-1.7,3,3,0,0,0-2-.62H206.8V16.8h3.69A3,3,0,0,0,212.44,16.23Z"/><path class="cls-2" d="M231.57,20.84l-4.28-7.76h-1.2v7.76h-5V.29h8.4a9.31,9.31,0,0,1,4.14.85,5.82,5.82,0,0,1,2.56,2.33A6.43,6.43,0,0,1,237,6.76a6,6,0,0,1-1.16,3.66,6.21,6.21,0,0,1-3.41,2.28l4.75,8.14Zm-5.48-11.3h3.11a2.84,2.84,0,0,0,2.06-.67A2.53,2.53,0,0,0,232,7a2.47,2.47,0,0,0-.69-1.85,2.84,2.84,0,0,0-2.06-.67h-3.11Z"/><path class="cls-2" d="M253,17.21h-7.67l-1.22,3.63h-5.24L246.26.29h5.8l7.43,20.55h-5.3Zm-1.28-3.86-2.55-7.53-2.52,7.53Z"/><path class="cls-2" d="M280.13,20.84h-5L266.75,8.17V20.84h-5V.29h5L275.12,13V.29h5Z"/><path class="cls-2" d="M284.22,5.11a9.47,9.47,0,0,1,3.68-3.72A10.63,10.63,0,0,1,293.24.06,10.18,10.18,0,0,1,299.5,2,9.29,9.29,0,0,1,303,7.26h-5.51a4.45,4.45,0,0,0-1.74-2,4.87,4.87,0,0,0-2.56-.68,4.81,4.81,0,0,0-3.75,1.61A6.28,6.28,0,0,0,288,10.54a6.25,6.25,0,0,0,1.43,4.3,4.81,4.81,0,0,0,3.75,1.61,4.87,4.87,0,0,0,2.56-.67,4.5,4.5,0,0,0,1.74-2H303a9.24,9.24,0,0,1-3.49,5.25A10.24,10.24,0,0,1,293.24,21a10.64,10.64,0,0,1-5.34-1.34,9.42,9.42,0,0,1-3.68-3.7,11,11,0,0,1-1.31-5.41A11.13,11.13,0,0,1,284.22,5.11Z"/><path class="cls-2" d="M323.86.29V20.84h-5V12.38h-7.79v8.46h-5V.29h5V8.34h7.79v-8Z"/></g><g class="cls-1"><path class="cls-2" d="M11.12,31.84a5.83,5.83,0,0,1,2.22,3.38h-2.4A3.84,3.84,0,0,0,9.43,33.4a4.51,4.51,0,0,0-2.49-.68,4.6,4.6,0,0,0-2.37.62A4.23,4.23,0,0,0,2.93,35.1a5.79,5.79,0,0,0-.59,2.68,6,6,0,0,0,.6,2.78,4.19,4.19,0,0,0,1.69,1.77,5.07,5.07,0,0,0,2.53.61,4.45,4.45,0,0,0,3-1.09,4.61,4.61,0,0,0,1.52-3H6.52V37.18h7.1v2.18a6.78,6.78,0,0,1-1.11,2.83,6.37,6.37,0,0,1-2.3,2A6.8,6.8,0,0,1,6.94,45a7.13,7.13,0,0,1-3.64-.92A6.25,6.25,0,0,1,.86,41.51a8.52,8.52,0,0,1,0-7.46,6.2,6.2,0,0,1,2.43-2.54,7.09,7.09,0,0,1,3.63-.91A6.86,6.86,0,0,1,11.12,31.84Z"/><path class="cls-2" d="M26,31.46A6.58,6.58,0,0,1,28.51,34a8.1,8.1,0,0,1,0,7.46A6.67,6.67,0,0,1,26,44.07a7.28,7.28,0,0,1-7.12,0,6.69,6.69,0,0,1-2.51-2.58,8,8,0,0,1,0-7.46,6.6,6.6,0,0,1,2.51-2.57,7.35,7.35,0,0,1,7.12,0Zm-6,1.82a4.18,4.18,0,0,0-1.65,1.78,6.47,6.47,0,0,0,0,5.4A4.18,4.18,0,0,0,20,42.24a4.74,4.74,0,0,0,2.42.62,4.65,4.65,0,0,0,2.39-.62,4.23,4.23,0,0,0,1.64-1.78,6.47,6.47,0,0,0,0-5.4,4.23,4.23,0,0,0-1.64-1.78,4.65,4.65,0,0,0-2.39-.62A4.74,4.74,0,0,0,20,33.28Z"/><path class="cls-2" d="M33.14,30.72,37.2,42.4l4.08-11.68h2.48l-5.1,14.12H35.74L30.66,30.72Z"/><path class="cls-2" d="M47.74,32.56v4.28h5.2V38.6h-5.2V43h5.8v1.86H45.46V30.72h8.08v1.84Z"/><path class="cls-2" d="M63.18,44.84,59.66,39.2H58v5.64H55.76V30.72h5a5.14,5.14,0,0,1,3.67,1.18A4.11,4.11,0,0,1,65.66,35a4,4,0,0,1-.93,2.72A4.42,4.42,0,0,1,62,39.1l3.7,5.74ZM58,37.58h2.52c1.84,0,2.76-.81,2.76-2.44a2.39,2.39,0,0,0-.67-1.81,2.92,2.92,0,0,0-2.09-.65H58Z"/><path class="cls-2" d="M79.14,44.84H76.86L70,34.42V44.84H67.72V30.74H70L76.86,41.2V30.74h2.28Z"/><path class="cls-2" d="M96.54,30.94v13.9h-2.3V34.42l-4,10.42h-2l-4-10.42V44.84H81.9V30.94h2.76L89.26,42l4.52-11.1Z"/><path class="cls-2" d="M101.56,32.56v4.28h5.2V38.6h-5.2V43h5.8v1.86H99.28V30.72h8.08v1.84Z"/><path class="cls-2" d="M121,44.84h-2.28l-6.86-10.42V44.84h-2.28V30.74h2.28l6.86,10.46V30.74H121Z"/><path class="cls-2" d="M132.84,30.72v1.84H128.9V44.84h-2.3V32.56h-3.92V30.72Z"/><path class="cls-2" d="M141.5,32.56v4.28h5.2V38.6h-5.2V43h5.8v1.86h-8.08V30.72h8.08v1.84Z"/><path class="cls-2" d="M160.94,44.84h-2.28L151.8,34.42V44.84h-2.28V30.74h2.28l6.86,10.46V30.74h2.28Z"/><path class="cls-2" d="M174.36,31.84a5.83,5.83,0,0,1,2.22,3.38h-2.4a3.84,3.84,0,0,0-1.51-1.82,4.51,4.51,0,0,0-2.49-.68,4.6,4.6,0,0,0-2.37.62,4.23,4.23,0,0,0-1.64,1.76,5.79,5.79,0,0,0-.59,2.68,6,6,0,0,0,.6,2.78,4.19,4.19,0,0,0,1.69,1.77,5.07,5.07,0,0,0,2.53.61,4.45,4.45,0,0,0,3-1.09,4.61,4.61,0,0,0,1.52-3h-5.18V37.18h7.1v2.18a6.78,6.78,0,0,1-1.11,2.83,6.37,6.37,0,0,1-2.3,2,6.8,6.8,0,0,1-3.27.76,7.13,7.13,0,0,1-3.64-.92,6.25,6.25,0,0,1-2.44-2.55,8.52,8.52,0,0,1,0-7.46,6.2,6.2,0,0,1,2.43-2.54,7.09,7.09,0,0,1,3.63-.91A6.86,6.86,0,0,1,174.36,31.84Z"/><path class="cls-2" d="M181.44,30.72V44.84h-2.28V30.72Z"/><path class="cls-2" d="M195.62,44.84h-2.28l-6.86-10.42V44.84H184.2V30.74h2.28l6.86,10.46V30.74h2.28Z"/><path class="cls-2" d="M200.66,32.56v4.28h5.2V38.6h-5.2V43h5.8v1.86h-8.08V30.72h8.08v1.84Z"/><path class="cls-2" d="M211,32.56v4.28h5.2V38.6H211V43h5.8v1.86h-8.08V30.72h8.08v1.84Z"/><path class="cls-2" d="M226.4,44.84l-3.52-5.64h-1.62v5.64H219V30.72h5a5.16,5.16,0,0,1,3.67,1.18A4.11,4.11,0,0,1,228.88,35a4,4,0,0,1-.93,2.72,4.42,4.42,0,0,1-2.69,1.36l3.7,5.74Zm-5.14-7.26h2.52c1.84,0,2.76-.81,2.76-2.44a2.39,2.39,0,0,0-.67-1.81,2.94,2.94,0,0,0-2.09-.65h-2.52Z"/><path class="cls-2" d="M233.22,30.72V44.84h-2.28V30.72Z"/><path class="cls-2" d="M247.4,44.84h-2.28l-6.86-10.42V44.84H236V30.74h2.28l6.86,10.46V30.74h2.28Z"/><path class="cls-2" d="M260.82,31.84A5.83,5.83,0,0,1,263,35.22h-2.4a3.84,3.84,0,0,0-1.51-1.82,4.51,4.51,0,0,0-2.49-.68,4.6,4.6,0,0,0-2.37.62,4.23,4.23,0,0,0-1.64,1.76,5.67,5.67,0,0,0-.59,2.68,6,6,0,0,0,.6,2.78,4.19,4.19,0,0,0,1.69,1.77,5,5,0,0,0,2.53.61,4.45,4.45,0,0,0,3-1.09,4.65,4.65,0,0,0,1.52-3h-5.18V37.18h7.1v2.18a6.78,6.78,0,0,1-1.11,2.83,6.37,6.37,0,0,1-2.3,2,6.8,6.8,0,0,1-3.27.76,7.11,7.11,0,0,1-3.64-.92,6.25,6.25,0,0,1-2.44-2.55,8.52,8.52,0,0,1,0-7.46A6.2,6.2,0,0,1,253,31.51a7.09,7.09,0,0,1,3.63-.91A6.86,6.86,0,0,1,260.82,31.84Z"/><path class="cls-2" d="M280.92,31.9a6.47,6.47,0,0,1,2.32,3.58h-2.42a4.34,4.34,0,0,0-1.59-2,4.61,4.61,0,0,0-2.67-.75,4.18,4.18,0,0,0-2.25.62,4.22,4.22,0,0,0-1.56,1.77,6.59,6.59,0,0,0,0,5.36,4.22,4.22,0,0,0,1.56,1.77,4.18,4.18,0,0,0,2.25.62,4.61,4.61,0,0,0,2.67-.75,4.33,4.33,0,0,0,1.59-2h2.42a6.41,6.41,0,0,1-2.32,3.57A7,7,0,0,1,276.6,45a6.79,6.79,0,0,1-3.54-.91,6.14,6.14,0,0,1-2.38-2.54,8.7,8.7,0,0,1,0-7.46,6.17,6.17,0,0,1,2.38-2.55,6.79,6.79,0,0,1,3.54-.92A6.9,6.9,0,0,1,280.92,31.9Z"/><path class="cls-2" d="M295.61,31.46a6.58,6.58,0,0,1,2.5,2.57,8.1,8.1,0,0,1,0,7.46,6.67,6.67,0,0,1-2.5,2.58,7.28,7.28,0,0,1-7.12,0A6.69,6.69,0,0,1,286,41.49,8,8,0,0,1,286,34a6.6,6.6,0,0,1,2.51-2.57,7.35,7.35,0,0,1,7.12,0Zm-6,1.82A4.18,4.18,0,0,0,288,35.06a6.47,6.47,0,0,0,0,5.4,4.18,4.18,0,0,0,1.65,1.78,4.71,4.71,0,0,0,2.42.62,4.65,4.65,0,0,0,2.39-.62,4.23,4.23,0,0,0,1.64-1.78,6.47,6.47,0,0,0,0-5.4,4.23,4.23,0,0,0-1.64-1.78,4.65,4.65,0,0,0-2.39-.62A4.71,4.71,0,0,0,289.64,33.28Z"/><path class="cls-2" d="M303.6,43.06h4.88v1.78h-7.16V30.72h2.28Z"/><path class="cls-2" d="M312.54,43.06h4.88v1.78h-7.16V30.72h2.28Z"/><path class="cls-2" d="M321.48,32.56v4.28h5.2V38.6h-5.2V43h5.8v1.86H319.2V30.72h8.08v1.84Z"/><path class="cls-2" d="M340.16,31.84a5.83,5.83,0,0,1,2.22,3.38H340a3.84,3.84,0,0,0-1.51-1.82,4.51,4.51,0,0,0-2.49-.68,4.6,4.6,0,0,0-2.37.62A4.23,4.23,0,0,0,332,35.1a5.67,5.67,0,0,0-.59,2.68,6,6,0,0,0,.6,2.78,4.19,4.19,0,0,0,1.69,1.77,5,5,0,0,0,2.53.61,4.45,4.45,0,0,0,3-1.09,4.65,4.65,0,0,0,1.52-3h-5.18V37.18h7.1v2.18a6.78,6.78,0,0,1-1.11,2.83,6.37,6.37,0,0,1-2.3,2A6.86,6.86,0,0,1,336,45a7.11,7.11,0,0,1-3.64-.92,6.18,6.18,0,0,1-2.44-2.55,8.52,8.52,0,0,1,0-7.46,6.2,6.2,0,0,1,2.43-2.54A7,7,0,0,1,336,30.6,6.86,6.86,0,0,1,340.16,31.84Z"/><path class="cls-2" d="M347.24,32.56v4.28h5.2V38.6h-5.2V43H353v1.86H345V30.72H353v1.84Z"/></g><g class="cls-1"><path class="cls-2" d="M2.74,54.72V68.84H.46V54.72Z"/><path class="cls-2" d="M16.75,65.49A6.05,6.05,0,0,1,14.21,68a8.4,8.4,0,0,1-4,.88H5.5V54.72h4.72a8.52,8.52,0,0,1,4,.87A6,6,0,0,1,16.75,58a8.41,8.41,0,0,1,0,7.45Zm-2.81,0a5.71,5.71,0,0,0,0-7.4A5.38,5.38,0,0,0,10,56.74H7.78v10H10A5.38,5.38,0,0,0,13.94,65.46Z"/><path class="cls-2" d="M22.1,54.72V63.1a4.09,4.09,0,0,0,.83,2.8,3,3,0,0,0,2.33.92,3,3,0,0,0,2.31-.92,4.09,4.09,0,0,0,.83-2.8V54.72h2.28V63.1a5.93,5.93,0,0,1-1.5,4.39,5.39,5.39,0,0,1-4,1.49,5.29,5.29,0,0,1-3.92-1.49,6,6,0,0,1-1.48-4.39V54.72Z"/><path class="cls-2" d="M37.76,61.7,44,68.84H41.2L35.62,62.3v6.54H33.34V54.72h2.28v6.46l5.6-6.46H44Z"/><path class="cls-2" d="M50.1,61.7l6.22,7.14H53.54L48,62.3v6.54H45.68V54.72H48v6.46l5.6-6.46h2.76Z"/><path class="cls-2" d="M60.3,54.72V68.84H58V54.72Z"/></g></g></g></g></g></g></svg>