<svg id="Layer_1" data-name="Layer 1" xmlns="http://www.w3.org/2000/svg" viewBox="0 0 1827.96 373.81"><path d="M1256.91,563.49h6.33V607.8h-6.33Z" transform="translate(-1182.21 -354.28)"/><path d="M1308.69,602.3v5.5h-32.16V563.49h31.28V569h-25v13.61h22.22V588h-22.22V602.3Z" transform="translate(-1182.21 -354.28)"/><path d="M1351.1,602.3v5.5H1319V563.49h31.27V569h-24.94v13.61h22.22V588h-22.22V602.3Z" transform="translate(-1182.21 -354.28)"/><path d="M1393.51,602.3v5.5h-32.15V563.49h31.27V569h-24.94v13.61h22.22V588h-22.22V602.3Z" transform="translate(-1182.21 -354.28)"/><path d="M1424.06,606.76a19.7,19.7,0,0,1-7.31-4l2.34-4.94a19.4,19.4,0,0,0,6.49,3.71,23.79,23.79,0,0,0,8.13,1.42c3.67,0,6.42-.62,8.23-1.87a5.76,5.76,0,0,0,2.72-5,4.88,4.88,0,0,0-1.49-3.7,9.8,9.8,0,0,0-3.67-2.18q-2.18-.76-6.17-1.71a63.85,63.85,0,0,1-8.07-2.41,13.21,13.21,0,0,1-5.25-3.7,9.87,9.87,0,0,1-2.19-6.74,11.48,11.48,0,0,1,1.87-6.4,12.82,12.82,0,0,1,5.67-4.55,22.94,22.94,0,0,1,9.43-1.71,30.07,30.07,0,0,1,7.72,1,20.76,20.76,0,0,1,6.52,2.91l-2.09,5.07a22.63,22.63,0,0,0-6-2.69,21.93,21.93,0,0,0-6.2-.92q-5.38,0-8.07,2a6,6,0,0,0-2.69,5.06,4.83,4.83,0,0,0,1.52,3.71,10.35,10.35,0,0,0,3.76,2.21,58.4,58.4,0,0,0,6.11,1.68,60.66,60.66,0,0,1,8,2.41,13.38,13.38,0,0,1,5.22,3.67,9.63,9.63,0,0,1,2.19,6.64,11.37,11.37,0,0,1-1.9,6.37,12.7,12.7,0,0,1-5.76,4.55,23.83,23.83,0,0,1-9.5,1.68A30.42,30.42,0,0,1,1424.06,606.76Z" transform="translate(-1182.21 -354.28)"/><path d="M1496,588.72a11.15,11.15,0,0,1,2.21,7.12,10.22,10.22,0,0,1-4.33,8.86q-4.34,3.1-12.63,3.1h-21.14V563.49H1480q7.61,0,11.75,3a9.88,9.88,0,0,1,4.14,8.42,11,11,0,0,1-1.61,6,10.55,10.55,0,0,1-4.34,3.87A11.29,11.29,0,0,1,1496,588.72Zm-29.56-20.1V582.8h13q4.88,0,7.51-1.8a6.65,6.65,0,0,0,0-10.58q-2.64-1.8-7.51-1.8Zm22.66,32.29a6.19,6.19,0,0,0,2.72-5.58q0-7.4-10.82-7.4h-14.56v14.75H1481Q1486.37,602.68,1489.1,600.91Z" transform="translate(-1182.21 -354.28)"/><path d="M1302.53,682h18.28V717.1a52.18,52.18,0,0,1-16.3,8.16,63.48,63.48,0,0,1-18.65,2.84,50.51,50.51,0,0,1-24.21-5.75,42.79,42.79,0,0,1-16.87-15.93,46.5,46.5,0,0,1,0-46.08,42.59,42.59,0,0,1,17-15.93,51.51,51.51,0,0,1,24.46-5.74,53.43,53.43,0,0,1,20.63,3.83,40.85,40.85,0,0,1,15.56,11.11l-12.85,11.86a29.73,29.73,0,0,0-22.36-9.76,30.56,30.56,0,0,0-14.69,3.46,24.82,24.82,0,0,0-10,9.76,30.71,30.71,0,0,0,0,28.78,25.37,25.37,0,0,0,9.94,9.82,29.45,29.45,0,0,0,14.52,3.52,32.43,32.43,0,0,0,15.56-3.7Z" transform="translate(-1182.21 -354.28)"/><path d="M1406.29,710.56v16.06h-67V640.15h65.35v16.06h-45.46V675h40.14v15.57h-40.14v20Z" transform="translate(-1182.21 -354.28)"/><path d="M1439.46,722.35a42.8,42.8,0,0,1-16.8-15.93,46.43,46.43,0,0,1,0-46.08,42.8,42.8,0,0,1,16.8-15.93,53.63,53.63,0,0,1,44.34-1.79A40.81,40.81,0,0,1,1499.06,654l-12.85,11.86q-8.78-10.12-21.74-10.13a29,29,0,0,0-14.33,3.52,25.06,25.06,0,0,0-9.82,9.82,30.93,30.93,0,0,0,0,28.66,25.06,25.06,0,0,0,9.82,9.82,28.85,28.85,0,0,0,14.33,3.52q13,0,21.74-10.25l12.85,11.86a40.06,40.06,0,0,1-15.32,11.48,50.78,50.78,0,0,1-20.38,4A49.65,49.65,0,0,1,1439.46,722.35Z" transform="translate(-1182.21 -354.28)"/><rect x="37.74" y="207.41" width="21.09" height="46.7"/><polygon points="335.99 273.68 357.1 273.68 357.1 164.89 335.99 155.13 335.99 273.68"/><rect x="336" y="284.67" width="21.09" height="86.93"/><polygon points="196.53 0 0 90.66 0 108.9 189.04 20.67 196.53 17.18 204 20.67 392.92 108.85 393.05 108.91 393.05 108.75 393.05 90.66 196.53 0"/><polygon points="6.34 112.94 6.34 178.54 37.74 164.05 37.74 196.87 58.83 196.87 58.83 154.32 185.21 96 185.21 170.94 206.3 170.94 206.3 95.29 335.99 155.13 335.99 155.13 335.99 155.13 357.1 164.89 386.71 178.55 386.71 178.55 386.71 178.55 386.71 112.94 196.53 24.18 6.34 112.94"/><path d="M1694.25,467.66h28.35V590.19h-28.35Z" transform="translate(-1182.21 -354.28)"/><path d="M1846.53,567.44v22.75h-94.87V467.66h92.6v22.76h-64.42V517h56.89v22.06h-56.89v28.36Z" transform="translate(-1182.21 -354.28)"/><path d="M1964,567.44v22.75h-94.88V467.66h92.6v22.76H1897.3V517h56.89v22.06H1897.3v28.36Z" transform="translate(-1182.21 -354.28)"/><path d="M2081.44,567.44v22.75h-94.87V467.66h92.6v22.76h-64.42V517h56.89v22.06h-56.89v28.36Z" transform="translate(-1182.21 -354.28)"/><path d="M2165.73,588.35q-13.58-3.93-21.8-10.24l9.63-21.35a65.44,65.44,0,0,0,18.73,9.28,70.43,70.43,0,0,0,21.7,3.5q12.09,0,17.86-3.59t5.78-9.54a9.13,9.13,0,0,0-3.42-7.27,25.77,25.77,0,0,0-8.75-4.63q-5.34-1.75-14.44-3.86a197.3,197.3,0,0,1-22.93-6.65,37.21,37.21,0,0,1-15.32-10.67q-6.39-7.37-6.39-19.61a34.09,34.09,0,0,1,5.78-19.34q5.78-8.67,17.42-13.74t28.44-5.08a94,94,0,0,1,22.93,2.8,67.84,67.84,0,0,1,19.61,8.05l-8.76,21.53q-17-9.62-34-9.62-11.91,0-17.6,3.85t-5.68,10.15q0,6.3,6.56,9.36t20,6a201.34,201.34,0,0,1,22.93,6.65,37.92,37.92,0,0,1,15.32,10.51q6.39,7.17,6.39,19.43a33.48,33.48,0,0,1-5.87,19.17q-5.86,8.65-17.59,13.74t-28.53,5.07A100,100,0,0,1,2165.73,588.35Z" transform="translate(-1182.21 -354.28)"/><path d="M2371.66,537.59q6,7.8,6,19.17,0,16.11-12.52,24.77t-36.5,8.66h-63.36V467.66h59.86q22.41,0,34.4,8.58t12,23.28a29.46,29.46,0,0,1-16.28,27A32.24,32.24,0,0,1,2371.66,537.59ZM2293.42,489V517.9h28.18q10.5,0,15.93-3.68t5.43-10.85q0-7.17-5.43-10.77T2321.6,489Zm50,76.14q5.68-3.67,5.69-11.38,0-15.22-22.58-15.23h-33.08v30.29h33.08Q2337.71,568.84,2343.39,565.16Z" transform="translate(-1182.21 -354.28)"/><path d="M1725.76,667.86h5.39v20.25a26.24,26.24,0,0,1-8.8,5,32.83,32.83,0,0,1-10.7,1.74,29.26,29.26,0,0,1-14.33-3.49,25.74,25.74,0,0,1-10-9.67,28.15,28.15,0,0,1,0-27.69,25.81,25.81,0,0,1,10-9.67,29.55,29.55,0,0,1,14.41-3.49,31.12,31.12,0,0,1,11.15,1.94,22.26,22.26,0,0,1,8.57,5.72l-3.49,3.57q-6.3-6.23-16-6.22a24,24,0,0,0-11.65,2.84,21,21,0,0,0-8.15,7.89,21.9,21.9,0,0,0-3,11.27,21.65,21.65,0,0,0,3,11.22,21.27,21.27,0,0,0,8.11,7.89,23.41,23.41,0,0,0,11.61,2.88,23.12,23.12,0,0,0,13.88-4.09Z" transform="translate(-1182.21 -354.28)"/><path d="M1754.66,692.17a19.13,19.13,0,0,1-7.28-7.25,21.92,21.92,0,0,1,0-20.93,18.82,18.82,0,0,1,7.28-7.21,22.21,22.21,0,0,1,20.78,0,18.54,18.54,0,0,1,7.25,7.21,22.21,22.21,0,0,1,0,20.93,18.85,18.85,0,0,1-7.25,7.25,22,22,0,0,1-20.78,0Zm18-4.1a13.57,13.57,0,0,0,5.27-5.5,18.37,18.37,0,0,0,0-16.23,13.57,13.57,0,0,0-5.27-5.5,16,16,0,0,0-15.25,0,13.73,13.73,0,0,0-5.31,5.5,17.94,17.94,0,0,0,0,16.23,13.73,13.73,0,0,0,5.31,5.5,16,16,0,0,0,15.25,0Z" transform="translate(-1182.21 -354.28)"/><path d="M1831.58,654.51l-17.75,39.9h-5.54l-17.68-39.9h5.62l14.94,34,15.1-34Z" transform="translate(-1182.21 -354.28)"/><path d="M1864.19,692a10.17,10.17,0,0,1-3.75,2.08,15.15,15.15,0,0,1-4.67.72q-5.61,0-8.65-3t-3-8.57V659.06H1837v-4.55h7.13v-8.73h5.39v8.73h12.13v4.55h-12.13v23.82a7.53,7.53,0,0,0,1.78,5.42,6.76,6.76,0,0,0,5.12,1.86,10,10,0,0,0,3.22-.53,8.1,8.1,0,0,0,2.7-1.52Z" transform="translate(-1182.21 -354.28)"/><path d="M1875.3,693.57a4.1,4.1,0,0,1-1.17-3,4,4,0,0,1,1.17-2.92,3.91,3.91,0,0,1,2.85-1.17,4,4,0,0,1,2.88,1.17,3.91,3.91,0,0,1,1.21,2.92,4,4,0,0,1-1.21,3,3.93,3.93,0,0,1-2.88,1.21A3.83,3.83,0,0,1,1875.3,693.57Z" transform="translate(-1182.21 -354.28)"/><path d="M1958,689.55v4.86h-37.55v-53.1h36.41v4.85h-30.79v18.89h27.45v4.78h-27.45v19.72Z" transform="translate(-1182.21 -354.28)"/><path d="M2005.24,658.56q4.44,4.37,4.44,12.71v23.14h-5.39V671.8c0-4.14-1-7.31-3.11-9.48s-5-3.26-8.87-3.26q-6.45,0-10.21,3.83t-3.75,10.58v20.94H1973v-39.9h5.16v7.36a15,15,0,0,1,6.11-5.66,19.51,19.51,0,0,1,9.06-2Q2000.8,654.2,2005.24,658.56Z" transform="translate(-1182.21 -354.28)"/><path d="M2064.29,654.51v35q0,10.17-5,15.06t-15,4.89a33.46,33.46,0,0,1-10.51-1.63,21.74,21.74,0,0,1-8.08-4.51l2.74-4.1a20.48,20.48,0,0,0,7,4,26.23,26.23,0,0,0,8.69,1.44q7.57,0,11.15-3.53t3.56-11v-5.08a16.25,16.25,0,0,1-6.56,5.77,20.33,20.33,0,0,1-9,2,21.14,21.14,0,0,1-10.2-2.47,18.2,18.2,0,0,1-7.21-6.9,19.46,19.46,0,0,1-2.61-10,19.24,19.24,0,0,1,2.61-10,18.12,18.12,0,0,1,7.17-6.83,21.42,21.42,0,0,1,10.24-2.43,20.31,20.31,0,0,1,9.18,2,16.59,16.59,0,0,1,6.6,5.92v-7.66Zm-12.59,31.74a13.44,13.44,0,0,0,5.42-5.2,14.81,14.81,0,0,0,1.93-7.58,14.65,14.65,0,0,0-1.93-7.55,13.48,13.48,0,0,0-5.38-5.15,17.52,17.52,0,0,0-15.63,0,13.2,13.2,0,0,0-5.39,5.16,15.85,15.85,0,0,0,0,15.16,13.49,13.49,0,0,0,5.39,5.2,16.11,16.11,0,0,0,7.77,1.86A16.36,16.36,0,0,0,2051.7,686.25Z" transform="translate(-1182.21 -354.28)"/><path d="M2082.19,644.65a3.73,3.73,0,0,1-1.14-2.74,3.63,3.63,0,0,1,1.14-2.65,3.81,3.81,0,0,1,2.81-1.14,3.89,3.89,0,0,1,2.8,1.1,3.53,3.53,0,0,1,1.14,2.62,4,4,0,0,1-6.75,2.81Zm.08,9.86h5.38v39.9h-5.38Z" transform="translate(-1182.21 -354.28)"/><path d="M2137.83,658.56q4.44,4.37,4.44,12.71v23.14h-5.39V671.8c0-4.14-1-7.31-3.11-9.48s-5-3.26-8.87-3.26q-6.45,0-10.21,3.83t-3.75,10.58v20.94h-5.39v-39.9h5.16v7.36a15,15,0,0,1,6.11-5.66,19.51,19.51,0,0,1,9.06-2Q2133.39,654.2,2137.83,658.56Z" transform="translate(-1182.21 -354.28)"/><path d="M2194.68,676.12H2161.3a14.32,14.32,0,0,0,4.78,10.06A15.89,15.89,0,0,0,2177,690a17.3,17.3,0,0,0,6.83-1.33,15,15,0,0,0,5.39-3.91l3,3.49a17.08,17.08,0,0,1-6.64,4.86,22.45,22.45,0,0,1-8.76,1.66,22.19,22.19,0,0,1-10.88-2.61,18.9,18.9,0,0,1-7.4-7.25,20.62,20.62,0,0,1-2.65-10.46,21.3,21.3,0,0,1,2.54-10.47,18.34,18.34,0,0,1,7-7.21,20.5,20.5,0,0,1,19.91,0,18.31,18.31,0,0,1,6.9,7.17,21.57,21.57,0,0,1,2.5,10.51Zm-28.94-13.61a14.49,14.49,0,0,0-4.44,9.59h28.3a14.49,14.49,0,0,0-4.44-9.59,14.65,14.65,0,0,0-19.42,0Z" transform="translate(-1182.21 -354.28)"/><path d="M2243.38,676.12H2210a14.28,14.28,0,0,0,4.78,10.06A15.87,15.87,0,0,0,2225.7,690a17.3,17.3,0,0,0,6.83-1.33,14.92,14.92,0,0,0,5.38-3.91l3,3.49a17.08,17.08,0,0,1-6.64,4.86,22.45,22.45,0,0,1-8.76,1.66,22.17,22.17,0,0,1-10.88-2.61,18.9,18.9,0,0,1-7.4-7.25,20.62,20.62,0,0,1-2.66-10.46,21.3,21.3,0,0,1,2.55-10.47,18.39,18.39,0,0,1,7-7.21,19.51,19.51,0,0,1,10-2.58,19.31,19.31,0,0,1,9.94,2.58A18.31,18.31,0,0,1,2241,664a21.57,21.57,0,0,1,2.5,10.51Zm-28.94-13.61a14.4,14.4,0,0,0-4.44,9.59h28.29a14.43,14.43,0,0,0-4.43-9.59,14.65,14.65,0,0,0-19.42,0Z" transform="translate(-1182.21 -354.28)"/><path d="M2268.14,656.25a19.28,19.28,0,0,1,9.29-2v5.24l-1.29-.08q-6.29,0-9.86,3.87t-3.56,10.85v20.33h-5.39v-39.9h5.16v7.81A13.07,13.07,0,0,1,2268.14,656.25Z" transform="translate(-1182.21 -354.28)"/><path d="M2290,644.65a3.73,3.73,0,0,1-1.14-2.74,3.63,3.63,0,0,1,1.14-2.65,3.8,3.8,0,0,1,2.8-1.14,3.89,3.89,0,0,1,2.81,1.1,3.53,3.53,0,0,1,1.14,2.62,4,4,0,0,1-6.75,2.81Zm.08,9.86h5.38v39.9H2290Z" transform="translate(-1182.21 -354.28)"/><path d="M2345.59,658.56q4.44,4.37,4.44,12.71v23.14h-5.39V671.8c0-4.14-1-7.31-3.11-9.48s-5-3.26-8.88-3.26c-4.29,0-7.7,1.28-10.2,3.83s-3.75,6.08-3.75,10.58v20.94h-5.39v-39.9h5.16v7.36a15,15,0,0,1,6.11-5.66,19.51,19.51,0,0,1,9.06-2Q2341.16,654.2,2345.59,658.56Z" transform="translate(-1182.21 -354.28)"/><path d="M2404.64,654.51v35q0,10.17-5,15.06t-15,4.89a33.42,33.42,0,0,1-10.51-1.63,21.74,21.74,0,0,1-8.08-4.51l2.73-4.1a20.53,20.53,0,0,0,7,4,26.23,26.23,0,0,0,8.69,1.44q7.58,0,11.15-3.53t3.56-11v-5.08a16.25,16.25,0,0,1-6.56,5.77,20.37,20.37,0,0,1-9,2,21.14,21.14,0,0,1-10.2-2.47,18.2,18.2,0,0,1-7.21-6.9,19.46,19.46,0,0,1-2.61-10,19.24,19.24,0,0,1,2.61-10,18.12,18.12,0,0,1,7.17-6.83,21.42,21.42,0,0,1,10.24-2.43,20.31,20.31,0,0,1,9.18,2,16.59,16.59,0,0,1,6.6,5.92v-7.66Zm-12.59,31.74a13.44,13.44,0,0,0,5.42-5.2,14.81,14.81,0,0,0,1.93-7.58,14.65,14.65,0,0,0-1.93-7.55,13.44,13.44,0,0,0-5.39-5.15,17.5,17.5,0,0,0-15.62,0,13.2,13.2,0,0,0-5.39,5.16,15.85,15.85,0,0,0,0,15.16,13.49,13.49,0,0,0,5.39,5.2,16.11,16.11,0,0,0,7.77,1.86A16.36,16.36,0,0,0,2392.05,686.25Z" transform="translate(-1182.21 -354.28)"/><path d="M2455.35,691.37a25.46,25.46,0,0,1-9.94-9.67,28.42,28.42,0,0,1,0-27.69,25.47,25.47,0,0,1,10-9.67,29.26,29.26,0,0,1,14.26-3.49,29.67,29.67,0,0,1,10.93,2,22.77,22.77,0,0,1,8.49,5.77l-3.56,3.57a21.17,21.17,0,0,0-15.71-6.3,23.1,23.1,0,0,0-11.45,2.88,21.05,21.05,0,0,0-8.08,7.89,23,23,0,0,0,0,22.45,21.05,21.05,0,0,0,8.08,7.89,23.1,23.1,0,0,0,11.45,2.88,20.87,20.87,0,0,0,15.71-6.37l3.56,3.57a23,23,0,0,1-8.53,5.8,29.38,29.38,0,0,1-11,2A28.92,28.92,0,0,1,2455.35,691.37Z" transform="translate(-1182.21 -354.28)"/><path d="M2507,692.17a19.13,19.13,0,0,1-7.28-7.25,22,22,0,0,1,0-20.93,18.82,18.82,0,0,1,7.28-7.21,22.23,22.23,0,0,1,20.79,0A18.52,18.52,0,0,1,2535,664a22.21,22.21,0,0,1,0,20.93,18.82,18.82,0,0,1-7.24,7.25,22,22,0,0,1-20.79,0Zm18-4.1a13.5,13.5,0,0,0,5.27-5.5,18.28,18.28,0,0,0,0-16.23,13.5,13.5,0,0,0-5.27-5.5,16,16,0,0,0-15.25,0,13.73,13.73,0,0,0-5.31,5.5,18,18,0,0,0,0,16.23,13.73,13.73,0,0,0,5.31,5.5,16,16,0,0,0,15.25,0Z" transform="translate(-1182.21 -354.28)"/><path d="M2551.49,638.12h5.38v56.29h-5.38Z" transform="translate(-1182.21 -354.28)"/><path d="M2574.78,638.12h5.38v56.29h-5.38Z" transform="translate(-1182.21 -354.28)"/><path d="M2632.8,676.12h-33.37a14.24,14.24,0,0,0,4.78,10.06,15.87,15.87,0,0,0,10.92,3.83,17.33,17.33,0,0,0,6.83-1.33,15,15,0,0,0,5.38-3.91l3,3.49a17.16,17.16,0,0,1-6.64,4.86,22.52,22.52,0,0,1-8.76,1.66,22.21,22.21,0,0,1-10.89-2.61,18.87,18.87,0,0,1-7.39-7.25,20.62,20.62,0,0,1-2.66-10.46,21.41,21.41,0,0,1,2.54-10.47,18.41,18.41,0,0,1,7-7.21,19.48,19.48,0,0,1,10-2.58,19.25,19.25,0,0,1,9.93,2.58,18.27,18.27,0,0,1,6.91,7.17,21.57,21.57,0,0,1,2.5,10.51Zm-28.93-13.61a14.4,14.4,0,0,0-4.44,9.59h28.29a14.4,14.4,0,0,0-4.44-9.59,14.64,14.64,0,0,0-19.41,0Z" transform="translate(-1182.21 -354.28)"/><path d="M2683.7,654.51v35q0,10.17-5,15.06t-15,4.89a33.35,33.35,0,0,1-10.5-1.63,21.58,21.58,0,0,1-8.08-4.51l2.73-4.1a20.48,20.48,0,0,0,7,4,26.28,26.28,0,0,0,8.69,1.44q7.59,0,11.15-3.53t3.57-11v-5.08a16.27,16.27,0,0,1-6.57,5.77,20.32,20.32,0,0,1-9,2,21.15,21.15,0,0,1-10.21-2.47,18.11,18.11,0,0,1-7.2-6.9,19.37,19.37,0,0,1-2.62-10,19.15,19.15,0,0,1,2.62-10,18,18,0,0,1,7.16-6.83,21.43,21.43,0,0,1,10.25-2.43,20.29,20.29,0,0,1,9.17,2,16.59,16.59,0,0,1,6.6,5.92v-7.66Zm-12.59,31.74a13.38,13.38,0,0,0,5.42-5.2,14.82,14.82,0,0,0,1.94-7.58,14.66,14.66,0,0,0-1.94-7.55,13.48,13.48,0,0,0-5.38-5.15,17.52,17.52,0,0,0-15.63,0,13.11,13.11,0,0,0-5.38,5.16,15.78,15.78,0,0,0,0,15.16,13.4,13.4,0,0,0,5.38,5.2,16.12,16.12,0,0,0,7.78,1.86A16.35,16.35,0,0,0,2671.11,686.25Z" transform="translate(-1182.21 -354.28)"/><path d="M2736.42,676.12H2703a14.28,14.28,0,0,0,4.78,10.06,15.87,15.87,0,0,0,10.92,3.83,17.3,17.3,0,0,0,6.83-1.33,15,15,0,0,0,5.39-3.91l3,3.49a17.08,17.08,0,0,1-6.64,4.86,22.45,22.45,0,0,1-8.76,1.66,22.17,22.17,0,0,1-10.88-2.61,18.9,18.9,0,0,1-7.4-7.25,20.62,20.62,0,0,1-2.65-10.46A21.3,21.3,0,0,1,2700.2,664a18.34,18.34,0,0,1,7-7.21,20.5,20.5,0,0,1,19.91,0A18.31,18.31,0,0,1,2734,664a21.57,21.57,0,0,1,2.5,10.51Zm-28.94-13.61a14.4,14.4,0,0,0-4.44,9.59h28.3a14.49,14.49,0,0,0-4.44-9.59,14.65,14.65,0,0,0-19.42,0Z" transform="translate(-1182.21 -354.28)"/><path d="M2774.27,641.31h5.61v53.1h-5.61Z" transform="translate(-1182.21 -354.28)"/><path d="M2835.33,638.12v56.29h-5.16v-7.89a16.35,16.35,0,0,1-6.41,6.14,18.74,18.74,0,0,1-9,2.12,20.22,20.22,0,0,1-10.16-2.57,18.38,18.38,0,0,1-7.13-7.21,22.84,22.84,0,0,1,0-21.09,18.21,18.21,0,0,1,7.13-7.17,20.51,20.51,0,0,1,10.16-2.54,18.84,18.84,0,0,1,8.76,2,16.57,16.57,0,0,1,6.41,5.88v-24Zm-12.56,50a13.73,13.73,0,0,0,5.31-5.5,17.94,17.94,0,0,0,0-16.23,13.73,13.73,0,0,0-5.31-5.5,14.87,14.87,0,0,0-7.54-1.93,15.05,15.05,0,0,0-7.63,1.93,13.73,13.73,0,0,0-5.31,5.5,18,18,0,0,0,0,16.23,13.73,13.73,0,0,0,5.31,5.5,15.06,15.06,0,0,0,7.63,1.94A14.88,14.88,0,0,0,2822.77,688.07Z" transform="translate(-1182.21 -354.28)"/><path d="M2889.18,654.51v39.9H2884v-7.29a14.72,14.72,0,0,1-5.85,5.65,17.41,17.41,0,0,1-8.49,2q-7.82,0-12.33-4.36t-4.51-12.78V654.51h5.39v22.6q0,6.3,3.11,9.56t8.87,3.26q6.3,0,9.94-3.83t3.64-10.66V654.51Z" transform="translate(-1182.21 -354.28)"/><path d="M2922,674.38l-9.4,8.65v11.38h-5.39V638.12h5.39v38.16l23.81-21.77H2943L2926,670.82l18.66,23.59H2938Z" transform="translate(-1182.21 -354.28)"/><path d="M2970.42,674.38,2961,683v11.38h-5.39V638.12H2961v38.16l23.81-21.77h6.68l-17.07,16.31,18.66,23.59h-6.6Z" transform="translate(-1182.21 -354.28)"/><path d="M3003.42,644.65a3.73,3.73,0,0,1-1.14-2.74,3.63,3.63,0,0,1,1.14-2.65,3.8,3.8,0,0,1,2.8-1.14,3.89,3.89,0,0,1,2.81,1.1,3.53,3.53,0,0,1,1.14,2.62,4,4,0,0,1-6.75,2.81Zm.08,9.86h5.38v39.9h-5.38Z" transform="translate(-1182.21 -354.28)"/></svg>